<svg width="27" height="13" viewBox="0 0 27 13" fill="none" xmlns="http://www.w3.org/2000/svg">
<path d="M0.482955 9.63636V3.63636H1.67614V4.36932H1.73011C1.78314 4.25189 1.85985 4.13258 1.96023 4.01136C2.0625 3.88826 2.19508 3.78598 2.35795 3.70455C2.52273 3.62121 2.72727 3.57955 2.97159 3.57955C3.28977 3.57955 3.58333 3.66288 3.85227 3.82955C4.12121 3.99432 4.33617 4.24337 4.49716 4.5767C4.65814 4.90814 4.73864 5.32386 4.73864 5.82386C4.73864 6.31061 4.66004 6.72159 4.50284 7.05682C4.34754 7.39015 4.13542 7.64299 3.86648 7.81534C3.59943 7.9858 3.30019 8.07102 2.96875 8.07102C2.7339 8.07102 2.53409 8.0322 2.36932 7.95455C2.20644 7.87689 2.07292 7.77936 1.96875 7.66193C1.86458 7.54261 1.78504 7.42235 1.73011 7.30114H1.69318V9.63636H0.482955ZM1.66761 5.81818C1.66761 6.07765 1.7036 6.30398 1.77557 6.49716C1.84754 6.69034 1.9517 6.84091 2.08807 6.94886C2.22443 7.05492 2.39015 7.10795 2.58523 7.10795C2.7822 7.10795 2.94886 7.05398 3.08523 6.94602C3.22159 6.83617 3.32481 6.68466 3.39489 6.49148C3.46686 6.2964 3.50284 6.07197 3.50284 5.81818C3.50284 5.56629 3.4678 5.3447 3.39773 5.15341C3.32765 4.96212 3.22443 4.8125 3.08807 4.70455C2.9517 4.59659 2.78409 4.54261 2.58523 4.54261C2.38826 4.54261 2.22159 4.5947 2.08523 4.69886C1.95076 4.80303 1.84754 4.95076 1.77557 5.14205C1.7036 5.33333 1.66761 5.55871 1.66761 5.81818ZM6.78977 8.08239C6.51136 8.08239 6.26326 8.03409 6.04545 7.9375C5.82765 7.83902 5.6553 7.69413 5.52841 7.50284C5.40341 7.30966 5.34091 7.06913 5.34091 6.78125C5.34091 6.53883 5.38542 6.33523 5.47443 6.17045C5.56345 6.00568 5.68466 5.87311 5.83807 5.77273C5.99148 5.67235 6.16572 5.59659 6.3608 5.54545C6.55777 5.49432 6.7642 5.45833 6.98011 5.4375C7.2339 5.41098 7.43845 5.38636 7.59375 5.36364C7.74905 5.33902 7.86174 5.30303 7.93182 5.25568C8.00189 5.20833 8.03693 5.13826 8.03693 5.04545V5.02841C8.03693 4.84848 7.98011 4.70928 7.86648 4.6108C7.75473 4.51231 7.59564 4.46307 7.3892 4.46307C7.1714 4.46307 6.99811 4.51136 6.86932 4.60795C6.74053 4.70265 6.6553 4.82197 6.61364 4.96591L5.49432 4.875C5.55114 4.60985 5.66288 4.38068 5.82955 4.1875C5.99621 3.99242 6.21117 3.8428 6.47443 3.73864C6.73958 3.63258 7.0464 3.57955 7.39489 3.57955C7.63731 3.57955 7.86932 3.60795 8.09091 3.66477C8.31439 3.72159 8.51231 3.80966 8.68466 3.92898C8.8589 4.0483 8.99621 4.2017 9.09659 4.3892C9.19697 4.57481 9.24716 4.79735 9.24716 5.05682V8H8.09943V7.39489H8.06534C7.99527 7.53125 7.90152 7.65152 7.78409 7.75568C7.66667 7.85795 7.52557 7.93845 7.3608 7.99716C7.19602 8.05398 7.00568 8.08239 6.78977 8.08239ZM7.13636 7.24716C7.31439 7.24716 7.47159 7.21212 7.60795 7.14205C7.74432 7.07008 7.85133 6.97348 7.92898 6.85227C8.00663 6.73106 8.04545 6.59375 8.04545 6.44034V5.97727C8.00758 6.00189 7.95549 6.02462 7.8892 6.04545C7.82481 6.06439 7.75189 6.08239 7.67045 6.09943C7.58902 6.11458 7.50758 6.12879 7.42614 6.14205C7.3447 6.15341 7.27083 6.16383 7.20455 6.1733C7.0625 6.19413 6.93845 6.22727 6.83239 6.27273C6.72633 6.31818 6.64394 6.37973 6.58523 6.45739C6.52652 6.53314 6.49716 6.62784 6.49716 6.74148C6.49716 6.90625 6.55682 7.0322 6.67614 7.11932C6.79735 7.20455 6.95076 7.24716 7.13636 7.24716ZM12.1577 8.08523C11.7107 8.08523 11.3262 7.99053 11.0043 7.80114C10.6842 7.60985 10.438 7.3447 10.2656 7.00568C10.0952 6.66667 10.0099 6.27652 10.0099 5.83523C10.0099 5.38826 10.0961 4.99621 10.2685 4.65909C10.4427 4.32008 10.6899 4.05587 11.0099 3.86648C11.33 3.67519 11.7107 3.57955 12.152 3.57955C12.5327 3.57955 12.866 3.64867 13.152 3.78693C13.438 3.92519 13.6643 4.11932 13.831 4.36932C13.9976 4.61932 14.0895 4.91288 14.1065 5.25H12.9645C12.9323 5.0322 12.8471 4.85701 12.7088 4.72443C12.5724 4.58996 12.3935 4.52273 12.1719 4.52273C11.9844 4.52273 11.8205 4.57386 11.6804 4.67614C11.5421 4.77652 11.4342 4.9233 11.3565 5.11648C11.2789 5.30966 11.2401 5.54356 11.2401 5.81818C11.2401 6.09659 11.2779 6.33333 11.3537 6.52841C11.4313 6.72348 11.5402 6.87216 11.6804 6.97443C11.8205 7.0767 11.9844 7.12784 12.1719 7.12784C12.3101 7.12784 12.4342 7.09943 12.544 7.04261C12.6558 6.9858 12.7476 6.90341 12.8196 6.79545C12.8935 6.68561 12.9418 6.55398 12.9645 6.40057H14.1065C14.0876 6.7339 13.9967 7.02746 13.8338 7.28125C13.6728 7.53314 13.4503 7.73011 13.1662 7.87216C12.8821 8.0142 12.5459 8.08523 12.1577 8.08523ZM14.8814 8V3.63636H16.0916V8H14.8814ZM15.4893 3.07386C15.3094 3.07386 15.1551 3.0142 15.0263 2.89489C14.8994 2.77367 14.8359 2.62879 14.8359 2.46023C14.8359 2.29356 14.8994 2.15057 15.0263 2.03125C15.1551 1.91004 15.3094 1.84943 15.4893 1.84943C15.6693 1.84943 15.8227 1.91004 15.9496 2.03125C16.0784 2.15057 16.1428 2.29356 16.1428 2.46023C16.1428 2.62879 16.0784 2.77367 15.9496 2.89489C15.8227 3.0142 15.6693 3.07386 15.4893 3.07386ZM19.4077 3.63636V4.54545H16.7145V3.63636H19.4077ZM17.331 8V3.32102C17.331 3.00473 17.3925 2.74242 17.5156 2.53409C17.6406 2.32576 17.8111 2.16951 18.027 2.06534C18.2429 1.96117 18.4882 1.90909 18.7628 1.90909C18.9484 1.90909 19.1179 1.9233 19.2713 1.9517C19.4266 1.98011 19.5421 2.00568 19.6179 2.02841L19.402 2.9375C19.3546 2.92235 19.2959 2.90814 19.2259 2.89489C19.1577 2.88163 19.0876 2.875 19.0156 2.875C18.8376 2.875 18.7135 2.91667 18.6435 3C18.5734 3.08144 18.5384 3.19602 18.5384 3.34375V8H17.331ZM20.147 8V3.63636H21.3572V8H20.147ZM20.755 3.07386C20.575 3.07386 20.4207 3.0142 20.2919 2.89489C20.165 2.77367 20.1016 2.62879 20.1016 2.46023C20.1016 2.29356 20.165 2.15057 20.2919 2.03125C20.4207 1.91004 20.575 1.84943 20.755 1.84943C20.9349 1.84943 21.0883 1.91004 21.2152 2.03125C21.344 2.15057 21.4084 2.29356 21.4084 2.46023C21.4084 2.62879 21.344 2.77367 21.2152 2.89489C21.0883 3.0142 20.9349 3.07386 20.755 3.07386ZM24.2983 8.08523C23.8513 8.08523 23.4669 7.99053 23.1449 7.80114C22.8248 7.60985 22.5786 7.3447 22.4062 7.00568C22.2358 6.66667 22.1506 6.27652 22.1506 5.83523C22.1506 5.38826 22.2367 4.99621 22.4091 4.65909C22.5833 4.32008 22.8305 4.05587 23.1506 3.86648C23.4706 3.67519 23.8513 3.57955 24.2926 3.57955C24.6733 3.57955 25.0066 3.64867 25.2926 3.78693C25.5786 3.92519 25.8049 4.11932 25.9716 4.36932C26.1383 4.61932 26.2301 4.91288 26.2472 5.25H25.1051C25.0729 5.0322 24.9877 4.85701 24.8494 4.72443C24.7131 4.58996 24.5341 4.52273 24.3125 4.52273C24.125 4.52273 23.9612 4.57386 23.821 4.67614C23.6828 4.77652 23.5748 4.9233 23.4972 5.11648C23.4195 5.30966 23.3807 5.54356 23.3807 5.81818C23.3807 6.09659 23.4186 6.33333 23.4943 6.52841C23.572 6.72348 23.6809 6.87216 23.821 6.97443C23.9612 7.0767 24.125 7.12784 24.3125 7.12784C24.4508 7.12784 24.5748 7.09943 24.6847 7.04261C24.7964 6.9858 24.8883 6.90341 24.9602 6.79545C25.0341 6.68561 25.0824 6.55398 25.1051 6.40057H26.2472C26.2282 6.7339 26.1373 7.02746 25.9744 7.28125C25.8134 7.53314 25.5909 7.73011 25.3068 7.87216C25.0227 8.0142 24.6866 8.08523 24.2983 8.08523Z" fill="white"/>
<path d="M12.8636 12.0412C12.7244 12.0412 12.6004 12.017 12.4915 11.9688C12.3826 11.9195 12.2964 11.8471 12.233 11.7514C12.1705 11.6548 12.1392 11.5346 12.1392 11.3906C12.1392 11.2694 12.1615 11.1676 12.206 11.0852C12.2505 11.0028 12.3111 10.9366 12.3878 10.8864C12.4645 10.8362 12.5516 10.7983 12.6491 10.7727C12.7476 10.7472 12.8509 10.7292 12.9588 10.7188C13.0857 10.7055 13.188 10.6932 13.2656 10.6818C13.3433 10.6695 13.3996 10.6515 13.4347 10.6278C13.4697 10.6042 13.4872 10.5691 13.4872 10.5227V10.5142C13.4872 10.4242 13.4588 10.3546 13.402 10.3054C13.3461 10.2562 13.2666 10.2315 13.1634 10.2315C13.0545 10.2315 12.9678 10.2557 12.9034 10.304C12.839 10.3513 12.7964 10.411 12.7756 10.483L12.2159 10.4375C12.2443 10.3049 12.3002 10.1903 12.3835 10.0938C12.4669 9.99621 12.5743 9.9214 12.706 9.86932C12.8385 9.81629 12.992 9.78977 13.1662 9.78977C13.2874 9.78977 13.4034 9.80398 13.5142 9.83239C13.6259 9.8608 13.7249 9.90483 13.8111 9.96449C13.8982 10.0241 13.9669 10.1009 14.017 10.1946C14.0672 10.2874 14.0923 10.3987 14.0923 10.5284V12H13.5185V11.6974H13.5014C13.4664 11.7656 13.4195 11.8258 13.3608 11.8778C13.3021 11.929 13.2315 11.9692 13.1491 11.9986C13.0668 12.027 12.9716 12.0412 12.8636 12.0412ZM13.0369 11.6236C13.1259 11.6236 13.2045 11.6061 13.2727 11.571C13.3409 11.535 13.3944 11.4867 13.4332 11.4261C13.4721 11.3655 13.4915 11.2969 13.4915 11.2202V10.9886C13.4725 11.0009 13.4465 11.0123 13.4134 11.0227C13.3812 11.0322 13.3447 11.0412 13.304 11.0497C13.2633 11.0573 13.2225 11.0644 13.1818 11.071C13.1411 11.0767 13.1042 11.0819 13.071 11.0866C13 11.0971 12.938 11.1136 12.8849 11.1364C12.8319 11.1591 12.7907 11.1899 12.7614 11.2287C12.732 11.2666 12.7173 11.3139 12.7173 11.3707C12.7173 11.4531 12.7472 11.5161 12.8068 11.5597C12.8674 11.6023 12.9441 11.6236 13.0369 11.6236ZM15.5447 12.8636C15.3487 12.8636 15.1806 12.8366 15.0405 12.7827C14.9013 12.7296 14.7905 12.6572 14.7081 12.5653C14.6257 12.4735 14.5722 12.3703 14.5476 12.2557L15.1072 12.1804C15.1243 12.224 15.1513 12.2647 15.1882 12.3026C15.2251 12.3404 15.2739 12.3707 15.3345 12.3935C15.3961 12.4171 15.4709 12.429 15.5589 12.429C15.6906 12.429 15.799 12.3968 15.8842 12.3324C15.9704 12.2689 16.0135 12.1624 16.0135 12.0128V11.6136H15.9879C15.9614 11.6742 15.9216 11.7315 15.8686 11.7855C15.8156 11.8395 15.7474 11.8835 15.6641 11.9176C15.5807 11.9517 15.4813 11.9688 15.3658 11.9688C15.2019 11.9688 15.0528 11.9309 14.9183 11.8551C14.7848 11.7784 14.6783 11.6615 14.5987 11.5043C14.5201 11.3461 14.4808 11.1463 14.4808 10.9048C14.4808 10.6577 14.5211 10.4512 14.6016 10.2855C14.6821 10.1198 14.7891 9.99574 14.9226 9.91335C15.0571 9.83097 15.2043 9.78977 15.3643 9.78977C15.4865 9.78977 15.5888 9.81061 15.6712 9.85227C15.7536 9.89299 15.8198 9.94413 15.87 10.0057C15.9212 10.0663 15.9605 10.1259 15.9879 10.1847H16.0107V9.81818H16.6115V12.0213C16.6115 12.2069 16.5661 12.3622 16.4751 12.4872C16.3842 12.6122 16.2583 12.706 16.0973 12.7685C15.9373 12.8319 15.7531 12.8636 15.5447 12.8636ZM15.5575 11.5142C15.6551 11.5142 15.7375 11.4901 15.8047 11.4418C15.8729 11.3925 15.925 11.3224 15.9609 11.2315C15.9979 11.1397 16.0163 11.0298 16.0163 10.902C16.0163 10.7741 15.9983 10.6634 15.9624 10.5696C15.9264 10.4749 15.8743 10.4015 15.8061 10.3494C15.7379 10.2973 15.6551 10.2713 15.5575 10.2713C15.4581 10.2713 15.3743 10.2983 15.3061 10.3523C15.2379 10.4053 15.1863 10.4792 15.1513 10.5739C15.1162 10.6686 15.0987 10.7779 15.0987 10.902C15.0987 11.0279 15.1162 11.1368 15.1513 11.2287C15.1873 11.3196 15.2389 11.3902 15.3061 11.4403C15.3743 11.4896 15.4581 11.5142 15.5575 11.5142ZM18.0874 12.0426C17.8629 12.0426 17.6697 11.9972 17.5078 11.9062C17.3468 11.8144 17.2228 11.6847 17.1357 11.517C17.0485 11.3485 17.005 11.1491 17.005 10.919C17.005 10.6946 17.0485 10.4976 17.1357 10.3281C17.2228 10.1586 17.3454 10.0265 17.5036 9.93182C17.6626 9.83712 17.8492 9.78977 18.0632 9.78977C18.2071 9.78977 18.3411 9.81297 18.4652 9.85938C18.5902 9.90483 18.6991 9.97348 18.7919 10.0653C18.8857 10.1572 18.9586 10.2727 19.0107 10.4119C19.0627 10.5502 19.0888 10.7121 19.0888 10.8977V11.0639H17.2464V10.6889H18.5192C18.5192 10.6018 18.5002 10.5246 18.4624 10.4574C18.4245 10.3902 18.3719 10.3376 18.3047 10.2997C18.2384 10.2609 18.1612 10.2415 18.0732 10.2415C17.9813 10.2415 17.8999 10.2628 17.8288 10.3054C17.7588 10.3471 17.7038 10.4034 17.6641 10.4744C17.6243 10.5445 17.6039 10.6226 17.603 10.7088V11.0653C17.603 11.1733 17.6229 11.2666 17.6626 11.3452C17.7034 11.4238 17.7607 11.4844 17.8345 11.527C17.9084 11.5696 17.996 11.5909 18.0973 11.5909C18.1645 11.5909 18.2261 11.5814 18.282 11.5625C18.3378 11.5436 18.3857 11.5152 18.4254 11.4773C18.4652 11.4394 18.4955 11.393 18.5163 11.3381L19.076 11.375C19.0476 11.5095 18.9893 11.6269 18.9013 11.7273C18.8142 11.8267 18.7015 11.9044 18.5632 11.9602C18.4259 12.0152 18.2673 12.0426 18.0874 12.0426ZM20.0888 10.7386V12H19.4837V9.81818H20.0604V10.2031H20.0859C20.1342 10.0762 20.2152 9.97585 20.3288 9.90199C20.4425 9.82718 20.5803 9.78977 20.7422 9.78977C20.8937 9.78977 21.0258 9.82292 21.1385 9.8892C21.2512 9.95549 21.3388 10.0502 21.4013 10.1733C21.4638 10.2955 21.495 10.4413 21.495 10.6108V12H20.8899V10.7188C20.8909 10.5852 20.8568 10.4811 20.7876 10.4062C20.7185 10.3305 20.6233 10.2926 20.5021 10.2926C20.4207 10.2926 20.3487 10.3101 20.2862 10.3452C20.2247 10.3802 20.1764 10.4313 20.1413 10.4986C20.1072 10.5649 20.0897 10.6449 20.0888 10.7386ZM22.9577 12.0426C22.7343 12.0426 22.542 11.9953 22.381 11.9006C22.221 11.8049 22.0979 11.6723 22.0117 11.5028C21.9265 11.3333 21.8839 11.1383 21.8839 10.9176C21.8839 10.6941 21.927 10.4981 22.0131 10.3295C22.1003 10.16 22.2238 10.0279 22.3839 9.93324C22.5439 9.83759 22.7343 9.78977 22.9549 9.78977C23.1452 9.78977 23.3119 9.82434 23.4549 9.89347C23.5979 9.96259 23.7111 10.0597 23.7944 10.1847C23.8777 10.3097 23.9237 10.4564 23.9322 10.625H23.3612C23.3451 10.5161 23.3024 10.4285 23.2333 10.3622C23.1651 10.295 23.0756 10.2614 22.9648 10.2614C22.8711 10.2614 22.7892 10.2869 22.7191 10.3381C22.65 10.3883 22.596 10.4616 22.5572 10.5582C22.5183 10.6548 22.4989 10.7718 22.4989 10.9091C22.4989 11.0483 22.5179 11.1667 22.5558 11.2642C22.5946 11.3617 22.649 11.4361 22.7191 11.4872C22.7892 11.5384 22.8711 11.5639 22.9648 11.5639C23.034 11.5639 23.096 11.5497 23.1509 11.5213C23.2068 11.4929 23.2527 11.4517 23.2887 11.3977C23.3256 11.3428 23.3498 11.277 23.3612 11.2003H23.9322C23.9227 11.367 23.8772 11.5137 23.7958 11.6406C23.7153 11.7666 23.604 11.8651 23.462 11.9361C23.32 12.0071 23.1519 12.0426 22.9577 12.0426ZM24.6932 12.8182C24.6165 12.8182 24.5445 12.812 24.4773 12.7997C24.411 12.7884 24.3561 12.7737 24.3125 12.7557L24.4489 12.304C24.5199 12.3258 24.5838 12.3376 24.6406 12.3395C24.6984 12.3414 24.7481 12.3281 24.7898 12.2997C24.8324 12.2713 24.867 12.223 24.8935 12.1548L24.929 12.0625L24.1463 9.81818H24.7827L25.2344 11.4205H25.2571L25.7131 9.81818H26.3537L25.5057 12.2358C25.465 12.3532 25.4096 12.4555 25.3395 12.5426C25.2704 12.6307 25.1828 12.6984 25.0767 12.7457C24.9706 12.794 24.8428 12.8182 24.6932 12.8182Z" fill="white"/>
</svg>
