<svg width="2" height="2" viewBox="0 0 2 2" fill="none" xmlns="http://www.w3.org/2000/svg">
<path d="M1 1.95703C0.49375 1.95703 0.0820312 1.55781 0.0820312 1.06719C0.0820312 0.724221 0.279688 0.41758 0.598047 0.266799C0.637891 0.248049 0.685547 0.264846 0.704297 0.30469C0.723047 0.344533 0.70625 0.39219 0.666406 0.41094C0.404297 0.535158 0.241797 0.78633 0.241797 1.06719C0.241797 1.46992 0.582031 1.79766 1 1.79766C1.41797 1.79766 1.7582 1.46992 1.7582 1.06719C1.7582 0.784377 1.58633 0.524611 1.31992 0.40508C1.27969 0.387111 1.26172 0.339846 1.27969 0.299611C1.29766 0.259377 1.34492 0.241408 1.38516 0.259768C1.70898 0.40469 1.91797 0.721877 1.91797 1.06719C1.91797 1.55781 1.50625 1.95703 1 1.95703Z" fill="#C0C0C0"/>
<path d="M1.00001 1.12461C0.955865 1.12461 0.920319 1.08906 0.920319 1.04492V0.122656C0.920319 0.0785156 0.956256 0.0429688 1.00001 0.0429688C1.04415 0.0429688 1.07969 0.0785156 1.07969 0.122656V1.04492C1.07969 1.08906 1.04415 1.12461 1.00001 1.12461Z" fill="#C0C0C0"/>
</svg>
